<svg width="14" height="15" viewBox="0 0 14 15" fill="none" xmlns="http://www.w3.org/2000/svg">
<path d="M6.41671 3.45806C4.62839 3.71386 3.21386 5.12839 2.95806 6.91671H4.08337V8.08337H2.95806C3.21386 9.8717 4.62839 11.2862 6.41671 11.542V10.4167H7.58337V11.542C9.3717 11.2862 10.7862 9.8717 11.042 8.08337H9.91671V6.91671H11.042C10.7862 5.12839 9.3717 3.71386 7.58337 3.45806V4.58337H6.41671V3.45806ZM1.78208 6.91671C2.05109 4.48326 3.98326 2.55109 6.41671 2.28208V1.08337H7.58337V2.28208C10.0168 2.55109 11.949 4.48326 12.218 6.91671H13.4167V8.08337H12.218C11.949 10.5168 10.0168 12.449 7.58337 12.718V13.9167H6.41671V12.718C3.98326 12.449 2.05109 10.5168 1.78208 8.08337H0.583374V6.91671H1.78208ZM8.16671 7.50004C8.16671 8.14439 7.64439 8.66671 7.00004 8.66671C6.35569 8.66671 5.83337 8.14439 5.83337 7.50004C5.83337 6.85569 6.35569 6.33337 7.00004 6.33337C7.64439 6.33337 8.16671 6.85569 8.16671 7.50004Z" fill="white"/>
</svg>
