<svg width="16" height="16" viewBox="0 0 16 16" fill="none" xmlns="http://www.w3.org/2000/svg">
<path fill-rule="evenodd" clip-rule="evenodd" d="M10.1501 4.21826L11.0413 5.99905C11.1295 6.17454 11.2987 6.29544 11.4931 6.32274L13.487 6.60986C13.8102 6.65229 14.0373 6.94917 13.9949 7.27237C13.9774 7.40451 13.9155 7.52731 13.8195 7.61997L12.3775 9.00537C12.2356 9.14044 12.1707 9.33691 12.2049 9.52991L12.5461 11.4857C12.5988 11.8123 12.3765 12.1194 12.0499 12.1721C11.9212 12.1926 11.7895 12.1706 11.6745 12.1097L9.89319 11.1864C9.71772 11.0957 9.50959 11.0957 9.33406 11.1864L7.55179 12.1101C7.25979 12.2652 6.89759 12.154 6.74259 11.862C6.68166 11.7465 6.65972 11.6149 6.68066 11.4862L7.02192 9.52991C7.05559 9.33737 6.99072 9.14091 6.84932 9.00584L5.40591 7.62044C5.17143 7.39424 5.16412 7.02084 5.39031 6.78584C5.48293 6.68984 5.60578 6.62791 5.73837 6.61035L7.73219 6.32323C7.92672 6.29593 8.09586 6.17503 8.18459 5.99953L9.07719 4.21826C9.23072 3.92187 9.59539 3.80634 9.89172 3.9599C10.0024 4.01693 10.0926 4.10712 10.1501 4.21826Z" stroke="#DCDDE4" stroke-linecap="round" stroke-linejoin="round"/>
<path d="M5.28387 10.4152C4.62981 10.3651 3.95215 10.5167 3.32486 10.7583" stroke="#DCDDE4" stroke-linecap="round" stroke-linejoin="round"/>
<path d="M2.00052 8.36507C2.45758 8.15714 2.95394 7.986 3.45655 7.90027" stroke="#DCDDE4" stroke-linecap="round" stroke-linejoin="round"/>
<path d="M2.87335 5.35461C3.97581 4.68738 5.27097 4.28828 6.62007 4.32552" stroke="#DCDDE4" stroke-linecap="round" stroke-linejoin="round"/>
</svg>
