<svg width="14" height="13" viewBox="0 0 14 13" fill="none" xmlns="http://www.w3.org/2000/svg">
<path d="M6.41634 2.45806C4.62802 2.71386 3.21349 4.12839 2.95769 5.91671H4.08301V7.08337H2.95769C3.21349 8.8717 4.62802 10.2862 6.41634 10.542V9.41671H7.58301V10.542C9.37133 10.2862 10.7859 8.8717 11.0416 7.08337H9.91634V5.91671H11.0416C10.7859 4.12839 9.37133 2.71386 7.58301 2.45806V3.58337H6.41634V2.45806ZM1.78172 5.91671C2.05072 3.48326 3.9829 1.55109 6.41634 1.28208V0.083374H7.58301V1.28208C10.0164 1.55109 11.9486 3.48326 12.2176 5.91671H13.4163V7.08337H12.2176C11.9486 9.51681 10.0164 11.449 7.58301 11.718V12.9167H6.41634V11.718C3.9829 11.449 2.05072 9.51681 1.78172 7.08337H0.583008V5.91671H1.78172ZM8.16634 6.50004C8.16634 7.14439 7.64402 7.66671 6.99967 7.66671C6.35532 7.66671 5.83301 7.14439 5.83301 6.50004C5.83301 5.85569 6.35532 5.33337 6.99967 5.33337C7.64402 5.33337 8.16634 5.85569 8.16634 6.50004Z" fill="white"/>
</svg>
