<svg width="10" height="10" viewBox="0 0 10 10" fill="none" xmlns="http://www.w3.org/2000/svg">
<path d="M5 10C2.23857 10 0 7.7614 0 5C0 2.23857 2.23857 0 5 0C7.7614 0 10 2.23857 10 5C10 7.7614 7.7614 10 5 10ZM5 9C7.20915 9 9 7.20915 9 5C9 2.79086 7.20915 1 5 1C2.79086 1 1 2.79086 1 5C1 7.20915 2.79086 9 5 9ZM4.5 6.5H5.5V7.5H4.5V6.5ZM5.5 5.67755V6H4.5V5.25C4.5 4.97385 4.72385 4.75 5 4.75C5.4142 4.75 5.75 4.4142 5.75 4C5.75 3.58578 5.4142 3.25 5 3.25C4.63615 3.25 4.3328 3.50911 4.2644 3.85288L3.28366 3.65673C3.44319 2.8546 4.151 2.25 5 2.25C5.9665 2.25 6.75 3.0335 6.75 4C6.75 4.79275 6.22285 5.4624 5.5 5.67755Z" fill="#626971"/>
</svg>
