<svg width="14" height="13" viewBox="0 0 14 13" fill="none" xmlns="http://www.w3.org/2000/svg">
<path d="M6.41671 2.45806C4.62839 2.71386 3.21386 4.12839 2.95806 5.91671H4.08337V7.08337H2.95806C3.21386 8.8717 4.62839 10.2862 6.41671 10.542V9.41671H7.58337V10.542C9.3717 10.2862 10.7862 8.8717 11.042 7.08337H9.91671V5.91671H11.042C10.7862 4.12839 9.3717 2.71386 7.58337 2.45806V3.58337H6.41671V2.45806ZM1.78208 5.91671C2.05109 3.48326 3.98326 1.55109 6.41671 1.28208V0.083374H7.58337V1.28208C10.0168 1.55109 11.949 3.48326 12.218 5.91671H13.4167V7.08337H12.218C11.949 9.51681 10.0168 11.449 7.58337 11.718V12.9167H6.41671V11.718C3.98326 11.449 2.05109 9.51681 1.78208 7.08337H0.583374V5.91671H1.78208ZM8.16671 6.50004C8.16671 7.14439 7.64439 7.66671 7.00004 7.66671C6.35569 7.66671 5.83337 7.14439 5.83337 6.50004C5.83337 5.85569 6.35569 5.33337 7.00004 5.33337C7.64439 5.33337 8.16671 5.85569 8.16671 6.50004Z" fill="white"/>
</svg>
