<svg width="10" height="10" viewBox="0 0 10 10" fill="none" xmlns="http://www.w3.org/2000/svg">
<path d="M9.5 4.8229V9.5C9.5 9.77615 9.27615 10 9 10H1C0.72386 10 0.5 9.77615 0.5 9.5V4.8229C0.18882 4.47035 0 4.0072 0 3.5V0.5C0 0.22386 0.22386 0 0.5 0H9.5C9.77615 0 10 0.22386 10 0.5V3.5C10 4.0072 9.8112 4.47035 9.5 4.8229ZM8.5 5.437C8.3402 5.4781 8.17265 5.5 8 5.5C7.40265 5.5 6.86645 5.2381 6.5 4.8229C6.13355 5.2381 5.59735 5.5 5 5.5C4.40265 5.5 3.86647 5.2381 3.5 4.8229C3.13353 5.2381 2.59734 5.5 2 5.5C1.82735 5.5 1.65981 5.4781 1.5 5.437V9H8.5V5.437ZM6 3.5C6 3.22386 6.22385 3 6.5 3C6.77615 3 7 3.22386 7 3.5C7 4.0523 7.4477 4.5 8 4.5C8.5523 4.5 9 4.0523 9 3.5V1H1V3.5C1 4.0523 1.44772 4.5 2 4.5C2.55228 4.5 3 4.0523 3 3.5C3 3.22386 3.22386 3 3.5 3C3.77614 3 4 3.22386 4 3.5C4 4.0523 4.4477 4.5 5 4.5C5.5523 4.5 6 4.0523 6 3.5Z" fill="#626971"/>
</svg>
