<svg width="20" height="15" viewBox="0 0 20 15" fill="none" xmlns="http://www.w3.org/2000/svg">
<g clip-path="url(#clip0_1_852)">
<path d="M19.9366 0.202746C19.8166 0.454144 19.3516 0.760847 18.75 0.985428C17.1033 1.60219 14.3099 1.96085 11.15 1.96085C8.69828 1.96085 6.48662 1.748 4.76662 1.34912C4.47662 1.28208 4.25495 1.25694 3.92162 1.25694C3.55162 1.25694 3.29328 1.28878 2.95495 1.37426C1.38328 1.77649 0.228283 3.10386 0.0316163 4.73459C0.00328292 4.98431 0.00661626 5.48375 0.0399496 5.71504C0.106616 6.15917 0.216616 6.51951 0.406616 6.91336C0.641616 7.39604 0.958283 7.81336 1.34162 8.1452C1.94162 8.66308 2.60828 8.96811 3.39162 9.08543C3.53995 9.10889 4.25328 9.11895 4.27328 9.09884C4.27828 9.09381 4.25995 9.02174 4.23162 8.93962C4.16162 8.73347 4.07662 8.37649 4.03995 8.13682C4.01495 7.97761 4.00828 7.84185 4.00828 7.48319C4.00828 6.97537 4.02495 6.82118 4.12662 6.40219C4.30328 5.67649 4.68328 4.9642 5.18662 4.41615L5.29495 4.30051L5.46828 4.38599C6.06328 4.68263 6.91162 4.91392 8.00662 5.07984C8.18828 5.10666 8.33995 5.12677 8.34162 5.12509C8.34328 5.12174 8.41828 5.03124 8.50828 4.9223C8.64162 4.76141 8.67828 4.72621 8.70662 4.73291C8.72662 4.73627 8.95495 4.78319 9.21662 4.83347C9.47828 4.88375 9.86495 4.95917 10.075 5.00107C10.2866 5.04129 10.4599 5.07314 10.4616 5.07146C10.4633 5.06979 10.3399 4.96252 10.1866 4.83515C9.52662 4.2804 9.25828 4.04912 9.25828 4.03571C9.25828 4.029 9.34328 3.92006 9.44828 3.79604C9.61495 3.59493 9.63995 3.57146 9.66495 3.59157C9.67995 3.60331 9.78495 3.69381 9.89995 3.78934C10.0149 3.88655 10.2516 4.08599 10.4249 4.2318C10.5999 4.37928 10.8316 4.57537 10.9416 4.66755C11.0516 4.76141 11.2683 4.94409 11.4233 5.07481L11.7066 5.3128H11.8749C12.3299 5.3128 13.41 5.24409 14.0083 5.17705C14.3966 5.13347 14.9316 5.05638 15.2249 5.00107C15.3533 4.97761 15.5899 4.93571 15.7499 4.90889C16.2383 4.82677 16.6099 4.71783 17.0133 4.54018C18.535 3.86979 19.6299 2.46532 19.9149 0.81783C19.9516 0.606657 19.99 0.232914 19.9799 0.167551C19.975 0.127328 19.9716 0.130679 19.9366 0.202746Z" fill="url(#paint0_linear_1_852)"/>
<path d="M15.8449 5.8609C15.7415 5.86593 15.7149 5.87263 15.7215 5.89107C15.8115 6.12403 15.9099 6.50615 15.9599 6.81621C16.0015 7.07263 16.0099 7.72961 15.9765 8.0095C15.9065 8.57766 15.7665 9.04023 15.5065 9.55475C15.3299 9.90503 15.0099 10.3643 14.8032 10.5637L14.7382 10.6274L14.5482 10.5369C12.7732 9.68045 8.66988 9.37375 5.38322 9.84805C4.83655 9.92682 3.88655 10.1196 3.56322 10.2151C2.24822 10.6073 1.12988 11.5575 0.524883 12.7961C0.213216 13.4346 0.0482161 14.0698 0.0115495 14.7704L0.00488281 14.9011L0.0565495 14.7972C0.588216 13.7179 4.90488 12.9168 9.63322 13.0224C11.7965 13.071 13.6015 13.2603 15.1115 13.5989C15.2932 13.6408 15.5099 13.6827 15.5915 13.6961C15.7882 13.7229 16.3649 13.7229 16.5665 13.6961C17.7615 13.5285 18.7699 12.8749 19.4082 11.8575C19.9415 11.0078 20.1182 9.92347 19.8899 8.9028C19.6565 7.85196 18.9699 6.92347 18.0265 6.3771C17.3815 6.00503 16.6115 5.82235 15.8449 5.8609Z" fill="url(#paint1_linear_1_852)"/>
<path d="M5.49166 6.46594C5.51166 6.54974 5.63666 6.82292 5.71499 6.95365C5.97999 7.39611 6.41999 7.80169 6.89999 8.04471C7.04666 8.11845 7.04833 8.1218 7.00833 8.25085C6.99499 8.29443 6.98999 8.32795 6.99666 8.3246C7.00333 8.32125 7.05333 8.29108 7.10833 8.25923L7.20833 8.20058L7.39166 8.22404C7.80499 8.27599 8.30499 8.15868 8.86666 7.87879C9.13999 7.74303 9.50666 7.52516 9.48833 7.5084C9.48166 7.50169 8.93833 7.35253 8.28333 7.17655C7.19666 6.88493 5.67333 6.47432 5.53666 6.43577C5.48166 6.42069 5.47999 6.42236 5.49166 6.46594Z" fill="white"/>
<path d="M13.9499 6.57149C13.6516 6.65194 13.1683 6.78099 12.8749 6.85976C12.5816 6.9402 12.0449 7.08434 11.6833 7.18155C11.3216 7.27875 10.9083 7.38937 10.7666 7.42791C10.6249 7.46479 10.5033 7.50166 10.4949 7.50836C10.4766 7.52512 10.7766 7.7078 11.0683 7.85529C11.6549 8.15361 12.1466 8.27261 12.5833 8.22065L12.7749 8.19886L12.8783 8.26423C12.9349 8.29942 12.9849 8.32959 12.9899 8.32959C12.9933 8.32959 12.9816 8.28266 12.9649 8.22736C12.9466 8.17037 12.9349 8.12177 12.9366 8.12009C12.9399 8.11842 13.0149 8.07819 13.1066 8.02959C13.6666 7.73127 14.0883 7.31227 14.3499 6.78937C14.4166 6.65864 14.5066 6.43574 14.4966 6.42736C14.4933 6.42568 14.2483 6.49104 13.9499 6.57149Z" fill="white"/>
</g>
<defs>
<linearGradient id="paint0_linear_1_852" x1="21.6405" y1="0.159968" x2="6.12296" y2="17.025" gradientUnits="userSpaceOnUse">
<stop stop-color="#0D84CF"/>
<stop offset="1" stop-color="#DC01FF"/>
</linearGradient>
<linearGradient id="paint1_linear_1_852" x1="21.6476" y1="5.87418" x2="5.98624" y2="22.7612" gradientUnits="userSpaceOnUse">
<stop stop-color="#0D84CF"/>
<stop offset="1" stop-color="#DC01FF"/>
</linearGradient>
<clipPath id="clip0_1_852">
<rect width="20" height="15" fill="white"/>
</clipPath>
</defs>
</svg>
